<svg width="25" height="25" viewBox="0 0 25 25" fill="none" xmlns="http://www.w3.org/2000/svg">
<path d="M12.1457 22.4434H12.5457C13.2956 22.4434 13.6706 22.4434 13.9335 22.2524C14.0184 22.1907 14.093 22.116 14.1547 22.0311C14.3457 21.7683 14.3457 21.3933 14.3457 20.6434V14.3184H15.5457C16.2956 14.3184 16.6706 14.3184 16.9335 14.1274C17.0184 14.0657 17.093 13.991 17.1547 13.9061C17.3457 13.6433 17.3457 13.2683 17.3457 12.5184V12.3267C17.3457 11.5767 17.3457 11.2018 17.1547 10.9389C17.093 10.854 17.0184 10.7794 16.9335 10.7177C16.6706 10.5267 16.2956 10.5267 15.5457 10.5267H14.3457V8.23503C14.3457 7.76908 14.3457 7.53611 14.4218 7.35234C14.5233 7.10731 14.718 6.91264 14.963 6.81115C15.1468 6.73503 15.3798 6.73503 15.8457 6.73503C16.3116 6.73503 16.5446 6.73503 16.7284 6.65891C16.9734 6.55741 17.1681 6.36274 17.2696 6.11771C17.3457 5.93394 17.3457 5.70097 17.3457 5.23503V4.49892C17.3457 3.98075 17.3457 3.72166 17.252 3.52074C17.1527 3.30767 16.9814 3.13641 16.7683 3.03705C16.5674 2.94336 16.3083 2.94336 15.7901 2.94336C13.9766 2.94336 13.0698 2.94336 12.3665 3.27128C11.6208 3.61904 11.0214 4.21843 10.6736 4.9642C10.3457 5.66743 10.3457 6.57422 10.3457 8.38781V10.5267H9.1457C8.39576 10.5267 8.02078 10.5267 7.75792 10.7177C7.67302 10.7794 7.59837 10.854 7.53669 10.9389C7.3457 11.2018 7.3457 11.5767 7.3457 12.3267V12.5184C7.3457 13.2683 7.3457 13.6433 7.53669 13.9061C7.59837 13.991 7.67302 14.0657 7.75792 14.1274C8.02078 14.3184 8.39576 14.3184 9.1457 14.3184H10.3457V20.6434C10.3457 21.3933 10.3457 21.7683 10.5367 22.0311C10.5984 22.116 10.673 22.1907 10.7579 22.2524C11.0208 22.4434 11.3958 22.4434 12.1457 22.4434Z" fill="#F5F5F5"/>
</svg>
