<svg width="132" height="39" viewBox="0 0 132 39" fill="none" xmlns="http://www.w3.org/2000/svg">
<path d="M21.7598 38.5522C42.9347 35.5272 42.9351 3.90689 21.7598 0.881835C34.4867 10.0165 34.4523 29.4136 21.7598 38.5522Z" fill="#F5F5F5"/>
<path d="M13.3782 37.7992C14.6966 38.223 16.0151 38.5056 17.4277 38.5997C28.3708 28.5602 28.3779 10.8257 17.4277 0.788086C16.0151 0.929349 14.6495 1.21188 13.3782 1.58858C22.5714 11.6811 22.5684 27.71 13.3782 37.7992Z" fill="#F5F5F5"/>
<path d="M8.48078 35.444C17.406 27.0202 17.4908 12.3919 8.48079 3.98926C-2.51602 11.3205 -2.52065 28.1097 8.48078 35.444Z" fill="#F5F5F5"/>
<g clip-path="url(#clip0_400_887)">
<path d="M58.9466 13.5233C55.5304 13.5233 53.5749 15.9971 53.5749 19.7196C53.5749 23.5599 55.7895 25.6567 58.9701 25.6567C61.9623 25.6567 63.7764 24.0075 63.7764 21.251V21.1803H58.5696V18.518H66.58V28.2012H64.0355L63.8471 26.2221C62.9047 27.5415 60.9492 28.4603 58.6167 28.4603C53.7869 28.4603 50.4179 24.9499 50.4179 19.6489C50.4179 14.4186 53.8341 10.6961 59.0173 10.6961C62.9518 10.6961 65.991 12.9814 66.4858 16.4919H63.3052C62.7633 14.4657 61.0199 13.5233 58.9466 13.5233ZM76.7162 16.5154V19.1777H75.656C73.5827 19.1777 72.2869 20.285 72.2869 22.5468V28.2012H69.4126V16.5861H72.122L72.2869 18.2824C72.7816 17.128 73.889 16.3505 75.4439 16.3505C75.8444 16.3505 76.245 16.3976 76.7162 16.5154ZM81.6649 28.5075C79.1911 28.5075 77.6832 27.0703 77.6832 24.8792C77.6832 22.7353 79.2382 21.3923 81.9947 21.1803L85.4816 20.9211V20.662C85.4816 19.0835 84.5392 18.4473 83.0785 18.4473C81.3821 18.4473 80.4397 19.1541 80.4397 20.3793H77.9895C77.9895 17.8583 80.0628 16.2091 83.2198 16.2091C86.3533 16.2091 88.2852 17.9055 88.2852 21.1332V28.2012H85.7643L85.5523 26.4813C85.0575 27.6829 83.479 28.5075 81.6649 28.5075ZM82.6073 26.3399C84.3743 26.3399 85.5051 25.2797 85.5051 23.4892V22.8766L83.0785 23.0651C81.2879 23.23 80.6047 23.819 80.6047 24.7614C80.6047 25.8216 81.3115 26.3399 82.6073 26.3399ZM91.1089 33.5964V16.5625H93.7712L93.9597 18.3295C94.6665 16.9866 96.1979 16.2091 97.9649 16.2091C101.24 16.2091 103.407 18.5887 103.407 22.2405C103.407 25.8687 101.428 28.5075 97.9649 28.5075C96.2214 28.5075 94.7136 27.8242 93.9832 26.6462V33.5964H91.1089ZM94.0068 22.3819C94.0068 24.4787 95.3026 25.9159 97.2816 25.9159C99.3078 25.9159 100.509 24.4551 100.509 22.3819C100.509 20.3086 99.3078 18.8243 97.2816 18.8243C95.3026 18.8243 94.0068 20.285 94.0068 22.3819ZM108.57 28.2012H105.696V10.6725H108.594V18.0704C109.324 16.9395 110.691 16.2091 112.363 16.2091C115.238 16.2091 116.746 18.0233 116.746 21.0389V28.2012H113.871V21.7222C113.871 19.7667 112.905 18.8243 111.445 18.8243C109.63 18.8243 108.57 20.0965 108.57 21.84V28.2012ZM118.886 22.3583C118.886 18.7301 121.502 16.2327 125.106 16.2327C128.711 16.2327 131.326 18.7301 131.326 22.3583C131.326 25.9865 128.711 28.4839 125.106 28.4839C121.502 28.4839 118.886 25.9865 118.886 22.3583ZM121.761 22.3583C121.761 24.4787 123.127 25.9159 125.106 25.9159C127.085 25.9159 128.452 24.4787 128.452 22.3583C128.452 20.2379 127.085 18.8007 125.106 18.8007C123.127 18.8007 121.761 20.2379 121.761 22.3583Z" fill="#F5F5F5"/>
</g>
<defs>
<clipPath id="clip0_400_887">
<rect width="82.08" height="38" fill="white" transform="translate(49.499 0.693359)"/>
</clipPath>
</defs>
</svg>
