<svg width="25" height="25" viewBox="0 0 25 25" fill="none" xmlns="http://www.w3.org/2000/svg">
<path fill-rule="evenodd" clip-rule="evenodd" d="M13.5457 2.94336H11.1457C7.58346 2.94336 5.80233 2.94336 4.55372 3.85053C4.15047 4.14351 3.79585 4.49813 3.50287 4.90138C2.5957 6.14999 2.5957 7.93111 2.5957 11.4934V13.8934C2.5957 17.4556 2.5957 19.2367 3.50287 20.4853C3.79585 20.8886 4.15047 21.2432 4.55372 21.5362C5.80233 22.4434 7.58346 22.4434 11.1457 22.4434H13.5457C17.1079 22.4434 18.8891 22.4434 20.1377 21.5362C20.5409 21.2432 20.8956 20.8886 21.1885 20.4853C22.0957 19.2367 22.0957 17.4556 22.0957 13.8934V11.4934C22.0957 7.93111 22.0957 6.14999 21.1885 4.90138C20.8956 4.49813 20.5409 4.14351 20.1377 3.85053C18.8891 2.94336 17.1079 2.94336 13.5457 2.94336ZM16.3457 12.6934C16.3457 14.9025 14.5548 16.6934 12.3457 16.6934C10.1366 16.6934 8.3457 14.9025 8.3457 12.6934C8.3457 10.4842 10.1366 8.69336 12.3457 8.69336C14.5548 8.69336 16.3457 10.4842 16.3457 12.6934ZM17.8457 8.19336C18.398 8.19336 18.8457 7.74564 18.8457 7.19336C18.8457 6.64107 18.398 6.19336 17.8457 6.19336C17.2934 6.19336 16.8457 6.64107 16.8457 7.19336C16.8457 7.74564 17.2934 8.19336 17.8457 8.19336Z" fill="#F5F5F5"/>
</svg>
