<svg width="25" height="25" viewBox="0 0 25 25" fill="none" xmlns="http://www.w3.org/2000/svg">
<path fill-rule="evenodd" clip-rule="evenodd" d="M2.5957 11.4934C2.5957 7.93111 2.5957 6.14999 3.50287 4.90138C3.79585 4.49813 4.15047 4.14351 4.55372 3.85053C5.80233 2.94336 7.58346 2.94336 11.1457 2.94336H13.5457C17.1079 2.94336 18.8891 2.94336 20.1377 3.85053C20.5409 4.14351 20.8956 4.49813 21.1885 4.90138C22.0957 6.14999 22.0957 7.93111 22.0957 11.4934V13.8934C22.0957 17.4556 22.0957 19.2367 21.1885 20.4853C20.8956 20.8886 20.5409 21.2432 20.1377 21.5362C18.8891 22.4434 17.1079 22.4434 13.5457 22.4434H11.1457C7.58346 22.4434 5.80233 22.4434 4.55372 21.5362C4.15047 21.2432 3.79585 20.8886 3.50287 20.4853C2.5957 19.2367 2.5957 17.4556 2.5957 13.8934V11.4934ZM7.8457 10.4434C8.25992 10.4434 8.5957 10.7791 8.5957 11.1934V17.1934C8.5957 17.6076 8.25992 17.9434 7.8457 17.9434C7.43149 17.9434 7.0957 17.6076 7.0957 17.1934V11.1934C7.0957 10.7791 7.43149 10.4434 7.8457 10.4434ZM11.3457 10.4434C11.7599 10.4434 12.0957 10.7791 12.0957 11.1934V11.4194C12.823 10.8102 13.7602 10.4434 14.7832 10.4434C16.3365 10.4434 17.5957 11.7026 17.5957 13.2559V17.1934C17.5957 17.6076 17.2599 17.9434 16.8457 17.9434C16.4315 17.9434 16.0957 17.6076 16.0957 17.1934V13.2559C16.0957 12.531 15.5081 11.9434 14.7832 11.9434C13.2989 11.9434 12.0957 13.1466 12.0957 14.6309V17.1934C12.0957 17.6076 11.7599 17.9434 11.3457 17.9434C10.9315 17.9434 10.5957 17.6076 10.5957 17.1934V14.6309V11.1934C10.5957 10.7791 10.9315 10.4434 11.3457 10.4434ZM7.8457 9.19336C8.39799 9.19336 8.8457 8.74564 8.8457 8.19336C8.8457 7.64107 8.39799 7.19336 7.8457 7.19336C7.29342 7.19336 6.8457 7.64107 6.8457 8.19336C6.8457 8.74564 7.29342 9.19336 7.8457 9.19336Z" fill="#F5F5F5"/>
</svg>
