<svg width="158" height="39" viewBox="0 0 158 39" fill="none" xmlns="http://www.w3.org/2000/svg">
<path fill-rule="evenodd" clip-rule="evenodd" d="M30.9976 22.0138V34.7348L37.7746 30.8352V18.1143L30.9976 22.0138Z" fill="#F5F5F5"/>
<path opacity="0.5" fill-rule="evenodd" clip-rule="evenodd" d="M17.516 8.6076L7.82101 14.2014L1.04395 10.3019L17.516 0.808594L29.1069 7.50498L22.3567 11.4045L17.516 8.6076Z" fill="#F5F5F5"/>
<path opacity="0.5" fill-rule="evenodd" clip-rule="evenodd" d="M19.9995 28.354L30.9974 22.0136L37.761 18.1007L30.9974 14.2012L19.9995 20.5684V28.354Z" fill="#F5F5F5"/>
<path fill-rule="evenodd" clip-rule="evenodd" d="M1.04395 10.3018V29.3152L17.516 38.8085V31.0095L7.82101 25.4157V14.2013L1.04395 10.3018Z" fill="#F5F5F5"/>
<g clip-path="url(#clip0_400_886)">
<path d="M63.838 28.1877C62.6365 28.6589 61.1758 28.8003 59.6208 28.8003C59.3852 28.8003 59.1496 28.8003 58.914 28.7767C53.8015 28.5411 50.079 25.4783 50.079 20.0595C50.079 14.5936 54.0606 11.2481 59.3852 11.2481C61.0108 11.2481 62.5894 11.5544 63.7674 12.1198L63.5553 16.1486C62.5894 15.7009 61.2464 15.3711 59.7857 15.3711C56.181 15.3711 53.99 17.3266 53.99 20.2951C53.99 23.1223 55.6863 24.9129 58.5842 25.2427C59.1025 25.2899 59.6679 25.2899 60.1862 25.2663V20.6957H63.838V28.1877ZM66.2662 28.5176V15.7245H69.8473V17.4208H69.9415C70.6012 16.0543 72.1562 15.4182 74.2295 15.4182L73.9939 19.5883C70.9782 19.4705 69.918 20.6721 69.918 23.6407V28.5176H66.2662ZM82.6687 20.3894C82.6687 19.6355 81.9148 19.1643 80.3363 19.1643C78.8049 19.1643 77.3677 19.6119 76.2368 20.1302L75.9777 16.4784C77.085 15.8894 78.7578 15.4182 80.7132 15.4182C84.7184 15.4182 86.4383 17.2795 86.4383 20.7192V28.5176H82.7158V26.9626C81.7734 28.0935 80.6897 28.8239 78.8049 28.8239C76.6845 28.8239 75.1531 27.7165 75.1531 25.5726C75.1531 22.8396 77.3442 22.0386 80.0771 21.5909C81.1138 21.4025 81.6792 21.2611 82.174 21.0726C82.5745 20.9077 82.6687 20.7192 82.6687 20.3894ZM82.7158 22.9574C82.3389 23.1459 81.7263 23.3815 80.9488 23.5464C79.7237 23.8291 78.9698 24.1354 78.9698 25.1956C78.9698 26.0438 79.6766 26.4443 80.5719 26.4443C81.6085 26.4443 82.3624 25.8082 82.7158 25.0307V22.9574ZM88.8829 32.994V15.7245H92.464V17.2559H92.5582C93.2886 16.125 94.7257 15.4182 96.4692 15.4182C99.9325 15.4182 102.524 17.892 102.524 22.1328C102.524 26.3736 99.7205 28.8239 96.4456 28.8239C94.7964 28.8239 93.3357 28.0935 92.6053 26.7506H92.5347V32.994H88.8829ZM95.6681 25.4548C97.3645 25.4548 98.6838 24.1354 98.6838 22.2977C98.6838 20.4601 97.3645 19.1643 95.6681 19.1643C93.9483 19.1643 92.6053 20.3894 92.6053 22.2977C92.6053 24.1825 93.9483 25.4548 95.6681 25.4548ZM113.127 22.015C113.127 20.2716 112.397 19.0936 110.677 19.0936C108.98 19.0936 108.203 20.248 108.203 22.0386V28.5176H104.551V10.612H108.132V17.2088H108.227C108.98 16.1015 110.135 15.4182 111.949 15.4182C115.13 15.4182 116.755 17.5386 116.755 20.6485V28.5176H113.127V22.015ZM130.017 28.2584C128.886 28.6589 127.614 28.8239 126.224 28.8239C121.606 28.8239 118.661 26.4679 118.661 22.0621C118.661 18.2454 121.159 15.4182 124.999 15.4182C128.91 15.4182 130.865 18.481 130.865 21.9443C130.865 22.4627 130.842 23.0281 130.748 23.4522H122.737C123.208 25.0778 124.669 25.8082 126.884 25.8082C127.968 25.8082 128.863 25.6668 129.711 25.3605L130.017 28.2584ZM125.046 18.8109C123.868 18.8109 122.808 19.4941 122.549 21.214H127.426C127.355 19.8711 126.413 18.8109 125.046 18.8109ZM132.874 28.5176V15.7245H136.455V17.4208H136.549C137.209 16.0543 138.764 15.4182 140.837 15.4182L140.601 19.5883C137.586 19.4705 136.526 20.6721 136.526 23.6407V28.5176H132.874ZM141.852 28.5176V25.7611L147.577 19.2114H142.111V15.7245H152.03V18.9993L146.305 25.337H152.148V28.5176H141.852Z" fill="#F5F5F5"/>
</g>
<defs>
<clipPath id="clip0_400_886">
<rect width="107.16" height="38" fill="white" transform="translate(49.939 0.693359)"/>
</clipPath>
</defs>
</svg>
