<svg width="25" height="25" viewBox="0 0 25 25" fill="none" xmlns="http://www.w3.org/2000/svg">
<path d="M2.96182 20.3095C2.47366 20.7976 2.47366 21.5891 2.96182 22.0772C3.44998 22.5654 4.24143 22.5654 4.72959 22.0772L2.96182 20.3095ZM21.7296 5.07724C22.2177 4.58909 22.2177 3.79763 21.7296 3.30948C21.2414 2.82132 20.45 2.82132 19.9618 3.30948L21.7296 5.07724ZM4.72959 22.0772L12.2296 14.5772L10.4618 12.8095L2.96182 20.3095L4.72959 22.0772ZM14.2296 12.5772L21.7296 5.07724L19.9618 3.30948L12.4618 10.8095L14.2296 12.5772Z" fill="#F5F5F5"/>
<path d="M6.54945 2.94336H4.61694C3.53968 2.94336 3.00105 2.94336 2.77585 3.2269C2.70562 3.31532 2.65626 3.41846 2.63146 3.52863C2.55193 3.88188 2.88982 4.30134 3.56562 5.14025L17.099 21.9403C17.2756 22.1596 17.364 22.2693 17.4804 22.3383C17.5188 22.3611 17.5591 22.3804 17.601 22.3961C17.7278 22.4434 17.8686 22.4434 18.1503 22.4434H20.0756C21.1525 22.4434 21.691 22.4434 21.9162 22.1599C21.9865 22.0715 22.0358 21.9684 22.0606 21.8582C22.1402 21.505 21.8025 21.0856 21.1271 20.2467L7.60099 3.44674C7.4243 3.22729 7.33596 3.11756 7.21955 3.04845C7.18113 3.02564 7.14075 3.00631 7.09889 2.99069C6.97206 2.94336 6.83119 2.94336 6.54945 2.94336Z" fill="#F5F5F5"/>
</svg>
