<svg width="147" height="39" viewBox="0 0 147 39" fill="none" xmlns="http://www.w3.org/2000/svg">
<path d="M7.08722 27.7819C7.08723 31.9503 0.619141 31.9503 0.61914 27.7819L0.61914 4.17343C0.619139 0.00507545 7.08722 0.00507517 7.08722 4.17343L7.08722 27.7819Z" fill="#F5F5F5"/>
<path d="M17.598 35.4597C17.598 39.628 11.1299 39.628 11.1299 35.4597L11.1299 11.8512C11.1299 7.68281 17.598 7.68281 17.598 11.8512L17.598 35.4597Z" fill="#F5F5F5"/>
<path d="M28.1082 27.7819C28.1082 31.9503 21.6401 31.9503 21.6401 27.7819L21.6401 4.17343C21.6401 0.00507545 28.1082 0.00507517 28.1082 4.17343L28.1082 27.7819Z" fill="#F5F5F5"/>
<path d="M38.619 35.4597C38.619 39.628 32.1509 39.628 32.1509 35.4597L32.1509 12.6112C32.1509 8.44281 38.619 8.44281 38.619 12.6112L38.619 35.4597Z" fill="#F5F5F5"/>
<g clip-path="url(#clip0_400_885)">
<path d="M61.6405 24.7627V28.0732H50.1789V10.5172H61.6405V13.8278H54.0663V17.7152H60.6373V20.8753H54.0663V24.7627H61.6405ZM68.3184 28.0732H64.5313V15.0066H67.7165L68.0174 16.7872C69.2464 15.458 70.701 14.7808 72.4817 14.7808C74.0868 14.7808 75.1652 15.2574 75.8424 16.1602C76.043 16.411 76.1935 16.6618 76.3189 16.9628C77.598 15.4831 79.0526 14.7808 80.8584 14.7808C82.5137 14.7808 83.6172 15.2574 84.2944 16.1602C84.9966 17.0882 85.1972 18.1666 85.1972 20.8251V28.0732H81.4352V21.6778C81.4352 20.173 81.3349 19.521 80.9336 18.9943C80.5073 18.4927 79.9304 18.292 79.0276 18.292C78.1999 18.292 77.4726 18.5428 76.7202 19.1698C76.7704 19.6464 76.7704 20.173 76.7704 20.8251V28.0732H72.9833V21.6778C72.9833 20.173 72.908 19.521 72.4817 18.9943C72.0804 18.4927 71.5036 18.292 70.6508 18.292C69.7229 18.292 68.8702 18.6181 68.3184 19.1949V28.0732ZM94.477 28.2739C93.4989 28.2739 92.4455 28.0983 91.4423 27.7221L88.5581 28.0732V9.01244H92.3452V16.712C93.2732 15.4329 94.5272 14.7558 96.2326 14.7558C99.1419 14.7558 101.098 16.9377 101.098 21.0258C101.098 25.6906 98.4397 28.2739 94.477 28.2739ZM92.3452 19.8219V24.8881C92.9221 25.1389 93.4738 25.2392 94.0507 25.2392C95.8815 25.2392 97.1606 24.0354 97.1606 21.402C97.1606 19.1949 96.2075 18.1165 94.8281 18.1165C93.7246 18.1165 92.9221 18.7184 92.3452 19.8219ZM107.285 28.0732H103.498V9.01244H107.285V28.0732ZM116.845 28.2739C112.08 28.2739 109.697 26.0668 109.697 21.5023C109.697 17.1384 112.657 14.7558 116.042 14.7558C119.629 14.7558 121.359 16.9126 121.359 20.6746C121.359 21.3769 121.309 22.0039 121.259 22.6309H113.559C113.936 24.5871 115.265 25.2643 117.698 25.2643C118.701 25.2643 119.729 25.164 120.607 25.0386L120.431 28.0231C119.528 28.1736 118.3 28.2739 116.845 28.2739ZM115.942 17.5647C114.638 17.5647 113.685 18.4927 113.484 20.5743L117.773 20.3486C117.773 18.4425 117.196 17.5647 115.942 17.5647ZM127.687 28.0732H123.9V15.0066H127.086L127.386 16.7872C128.615 15.458 130.07 14.7808 131.851 14.7808C133.456 14.7808 134.534 15.2574 135.211 16.1602C135.412 16.411 135.563 16.6618 135.688 16.9628C136.967 15.4831 138.422 14.7808 140.227 14.7808C141.883 14.7808 142.986 15.2574 143.663 16.1602C144.366 17.0882 144.566 18.1666 144.566 20.8251V28.0732H140.804V21.6778C140.804 20.173 140.704 19.521 140.303 18.9943C139.876 18.4927 139.299 18.292 138.397 18.292C137.569 18.292 136.842 18.5428 136.089 19.1698C136.139 19.6464 136.139 20.173 136.139 20.8251V28.0732H132.352V21.6778C132.352 20.173 132.277 19.521 131.851 18.9943C131.449 18.4927 130.873 18.292 130.02 18.292C129.092 18.292 128.239 18.6181 127.687 19.1949V28.0732Z" fill="#F5F5F5"/>
</g>
<defs>
<clipPath id="clip0_400_885">
<rect width="96.52" height="38" fill="white" transform="translate(50.019 0.693359)"/>
</clipPath>
</defs>
</svg>
