<svg width="130" height="37" viewBox="0 0 130 37" fill="none" xmlns="http://www.w3.org/2000/svg">
<path d="M0.0261533 23.3482C-0.0242355 23.5358 -0.00264034 23.7306 0.0981373 23.8965L3.73333 30.2098C3.93489 30.5561 4.37399 30.6715 4.71951 30.4767L13.1416 25.5993V35.3542C13.1416 35.751 13.4656 36.0757 13.8615 36.0757H21.1391C21.535 36.0757 21.8589 35.751 21.8589 35.3542V25.5993L30.281 30.4767C30.4466 30.5705 30.6482 30.5994 30.8281 30.5489C31.0153 30.4984 31.1736 30.3757 31.2672 30.2098L34.9024 23.8965C35.104 23.5502 34.9816 23.1101 34.6433 22.9153L26.2139 18.0378L34.6433 13.1604C34.8016 13.0666 34.924 12.9079 34.9744 12.7203C35.0248 12.5399 34.996 12.3379 34.9024 12.1719L31.2672 5.85869C31.0657 5.51236 30.6266 5.39692 30.281 5.59895L21.8589 10.4692V0.721514C21.8589 0.324681 21.535 0 21.1391 0H13.8615C13.4656 0 13.1416 0.324681 13.1416 0.721514V10.4692L4.71951 5.59895C4.37399 5.39692 3.93489 5.51236 3.73333 5.85869L0.0981373 12.1719C-0.00264034 12.3379 -0.0242355 12.5399 0.0261533 12.7203C0.0765422 12.9079 0.191717 13.0666 0.35728 13.1604L8.78661 18.0378L0.35728 22.9153C0.191717 23.0091 0.0765422 23.1678 0.0261533 23.3482Z" fill="#fff"/>
<path d="M50.7393 27.7039C49.3232 27.7039 48.0944 27.4842 47.0527 27.0447C46.0111 26.6053 45.1973 25.9665 44.6113 25.1282C44.0254 24.2819 43.708 23.2565 43.6592 22.0521H46.9062C46.9551 22.6868 47.1504 23.2158 47.4922 23.639C47.834 24.054 48.2816 24.3673 48.835 24.5789C49.3965 24.7905 50.019 24.8963 50.7026 24.8963C51.4188 24.8963 52.0495 24.7864 52.5947 24.5667C53.14 24.347 53.5672 24.0418 53.8765 23.6512C54.1857 23.2606 54.3403 22.8048 54.3403 22.284C54.3403 21.812 54.202 21.4254 53.9253 21.1243C53.6486 20.8151 53.2661 20.5547 52.7778 20.3431C52.2896 20.1315 51.7158 19.9443 51.0566 19.7816L48.9937 19.2444C47.4963 18.862 46.3162 18.2801 45.4536 17.4988C44.591 16.7095 44.1597 15.6596 44.1597 14.3494C44.1597 13.2752 44.4486 12.3393 45.0264 11.5418C45.6042 10.7361 46.3936 10.1095 47.3945 9.66193C48.4036 9.21434 49.543 8.99054 50.8125 8.99054C52.1064 8.99054 53.2417 9.21434 54.2183 9.66193C55.1948 10.1095 55.9598 10.728 56.5132 11.5174C57.0666 12.3068 57.3555 13.2142 57.3799 14.2396H54.1938C54.1125 13.4583 53.7666 12.8561 53.1562 12.4329C52.554 12.0016 51.7606 11.7859 50.7759 11.7859C50.0923 11.7859 49.5023 11.8877 49.0059 12.0911C48.5176 12.2946 48.1432 12.5753 47.8828 12.9334C47.6224 13.2915 47.4922 13.6984 47.4922 14.1541C47.4922 14.6587 47.6427 15.0737 47.9438 15.3992C48.2531 15.7166 48.6437 15.973 49.1157 16.1683C49.5959 16.3636 50.0841 16.5263 50.5806 16.6566L52.2773 17.0838C52.9609 17.2466 53.6201 17.4663 54.2549 17.743C54.8896 18.0115 55.4593 18.3533 55.9639 18.7684C56.4766 19.1753 56.8794 19.6717 57.1724 20.2576C57.4735 20.8436 57.624 21.5312 57.624 22.3206C57.624 23.3786 57.3514 24.3144 56.8062 25.1282C56.2609 25.9339 55.4756 26.5646 54.4502 27.0203C53.4248 27.4761 52.1878 27.7039 50.7393 27.7039ZM66.2666 13.7757V16.2659H58.4419V13.7757H66.2666ZM60.3584 10.5286H63.5688V23.3216C63.5688 23.8587 63.6868 24.2575 63.9229 24.5179C64.1589 24.7702 64.5332 24.8963 65.0459 24.8963C65.1842 24.8963 65.3389 24.8841 65.5098 24.8597C65.6807 24.8353 65.8353 24.8068 65.9736 24.7742L66.5229 27.2889C66.1812 27.3947 65.8353 27.472 65.4854 27.5208C65.1354 27.5778 64.7855 27.6063 64.4355 27.6063C63.166 27.6063 62.1691 27.2726 61.4448 26.6053C60.7205 25.9298 60.3584 25.0102 60.3584 23.8465V10.5286ZM76.728 21.6981V13.7757H79.9385V27.4232H76.8257V24.994H76.6792C76.37 25.7589 75.8654 26.3856 75.1655 26.8738C74.4657 27.3621 73.603 27.6022 72.5776 27.5941C71.6825 27.5941 70.8931 27.3987 70.2095 27.0081C69.534 26.6094 69.001 26.0275 68.6104 25.2625C68.2279 24.4894 68.0366 23.5576 68.0366 22.4671V13.7757H71.2471V21.9788C71.2471 22.8333 71.4831 23.5169 71.9551 24.0296C72.4352 24.5423 73.0618 24.7946 73.835 24.7864C74.307 24.7864 74.7627 24.6725 75.2021 24.4446C75.6497 24.2168 76.016 23.875 76.3008 23.4193C76.5856 22.9635 76.728 22.3898 76.728 21.6981ZM87.3481 27.6673C86.2821 27.6673 85.3218 27.3947 84.4673 26.8494C83.6209 26.296 82.9536 25.4944 82.4653 24.4446C81.9771 23.3948 81.7329 22.1212 81.7329 20.6238C81.7329 19.102 81.9811 17.8203 82.4775 16.7786C82.9821 15.737 83.6576 14.9476 84.5039 14.4105C85.3503 13.8734 86.2983 13.6048 87.3481 13.6048C88.1538 13.6048 88.813 13.7391 89.3257 14.0076C89.8384 14.2762 90.2453 14.6017 90.5464 14.9842C90.8556 15.3585 91.0916 15.7085 91.2544 16.034H91.3887V9.23468H94.5869V27.4232H91.4497V25.2625H91.2544C91.0835 25.5962 90.8434 25.9502 90.5342 26.3245C90.2249 26.6907 89.814 27.0081 89.3013 27.2767C88.7886 27.5371 88.1375 27.6673 87.3481 27.6673ZM88.2393 25.0306C88.9229 25.0306 89.5007 24.8475 89.9727 24.4813C90.4528 24.1069 90.819 23.5901 91.0713 22.931C91.3236 22.2637 91.4497 21.4905 91.4497 20.6116C91.4497 19.7246 91.3236 18.9555 91.0713 18.3045C90.8271 17.6453 90.465 17.1367 89.9849 16.7786C89.5129 16.4206 88.931 16.2415 88.2393 16.2415C87.5312 16.2415 86.9372 16.4287 86.457 16.803C85.9769 17.1774 85.6147 17.6942 85.3706 18.3533C85.1346 19.0125 85.0166 19.7653 85.0166 20.6116C85.0166 21.458 85.1387 22.2148 85.3828 22.8821C85.627 23.5495 85.985 24.0744 86.457 24.4568C86.9372 24.8393 87.5312 25.0306 88.2393 25.0306ZM96.9673 27.4232V13.7757H100.178V27.4232H96.9673ZM98.5786 11.8592C98.0659 11.8592 97.6265 11.6883 97.2603 11.3465C96.894 11.0047 96.7109 10.5937 96.7109 10.1136C96.7109 9.62531 96.894 9.21027 97.2603 8.86847C97.6265 8.52667 98.0659 8.35577 98.5786 8.35577C99.0832 8.35577 99.5186 8.52667 99.8848 8.86847C100.251 9.21027 100.434 9.62124 100.434 10.1014C100.434 10.5897 100.251 11.0047 99.8848 11.3465C99.5186 11.6883 99.0832 11.8592 98.5786 11.8592ZM108.503 27.6917C107.168 27.6917 106.013 27.3987 105.036 26.8128C104.06 26.2269 103.303 25.4049 102.766 24.347C102.237 23.289 101.972 22.0602 101.972 20.6605C101.972 19.2526 102.237 18.0197 102.766 16.9617C103.303 15.8957 104.06 15.0696 105.036 14.4837C106.013 13.8978 107.168 13.6048 108.503 13.6048C109.838 13.6048 110.993 13.8978 111.97 14.4837C112.946 15.0696 113.703 15.8957 114.24 16.9617C114.777 18.0197 115.046 19.2526 115.046 20.6605C115.046 22.0602 114.777 23.289 114.24 24.347C113.703 25.4049 112.946 26.2269 111.97 26.8128C110.993 27.3987 109.838 27.6917 108.503 27.6917ZM108.503 25.1038C109.243 25.1038 109.854 24.9085 110.334 24.5179C110.814 24.1191 111.172 23.582 111.408 22.9066C111.652 22.2311 111.774 21.4824 111.774 20.6605C111.774 19.8222 111.652 19.0654 111.408 18.39C111.172 17.7145 110.814 17.1815 110.334 16.7908C109.854 16.3921 109.243 16.1927 108.503 16.1927C107.779 16.1927 107.172 16.3921 106.684 16.7908C106.196 17.1815 105.83 17.7145 105.585 18.39C105.349 19.0654 105.231 19.8222 105.231 20.6605C105.231 21.4824 105.349 22.2311 105.585 22.9066C105.83 23.582 106.196 24.1191 106.684 24.5179C107.172 24.9085 107.779 25.1038 108.503 25.1038ZM122.761 27.6917C121.426 27.6917 120.271 27.3987 119.294 26.8128C118.317 26.2269 117.561 25.4049 117.023 24.347C116.494 23.289 116.23 22.0602 116.23 20.6605C116.23 19.2526 116.494 18.0197 117.023 16.9617C117.561 15.8957 118.317 15.0696 119.294 14.4837C120.271 13.8978 121.426 13.6048 122.761 13.6048C124.095 13.6048 125.251 13.8978 126.228 14.4837C127.204 15.0696 127.961 15.8957 128.498 16.9617C129.035 18.0197 129.304 19.2526 129.304 20.6605C129.304 22.0602 129.035 23.289 128.498 24.347C127.961 25.4049 127.204 26.2269 126.228 26.8128C125.251 27.3987 124.095 27.6917 122.761 27.6917ZM122.761 25.1038C123.501 25.1038 124.112 24.9085 124.592 24.5179C125.072 24.1191 125.43 23.582 125.666 22.9066C125.91 22.2311 126.032 21.4824 126.032 20.6605C126.032 19.8222 125.91 19.0654 125.666 18.39C125.43 17.7145 125.072 17.1815 124.592 16.7908C124.112 16.3921 123.501 16.1927 122.761 16.1927C122.036 16.1927 121.43 16.3921 120.942 16.7908C120.454 17.1815 120.087 17.7145 119.843 18.39C119.607 19.0654 119.489 19.8222 119.489 20.6605C119.489 21.4824 119.607 22.2311 119.843 22.9066C120.087 23.582 120.454 24.1191 120.942 24.5179C121.43 24.9085 122.036 25.1038 122.761 25.1038Z" fill="#fff"/>
</svg>
